<svg width="24" height="24" fill="none" xmlns="http://www.w3.org/2000/svg"><rect x="6" y="8" width="12" height="2" rx="1" fill="#000"/><rect x="2" y="3" width="7" height="1" rx=".5" fill="#000"/><rect x="15" y="3" width="7" height="1" rx=".5" fill="#000"/><rect x="2" y="20" width="20" height="1" rx=".5" fill="#000"/><rect x="6" y="14" width="4" height="2" rx="1" fill="#000"/><rect x="6" y="11" width="12" height="2" rx="1" fill="#000"/><path d="M10.794 3.96c-.094.235-.241.467-.438.691a.21.21 0 0 0 .215.34c.417-.121 1.39-.554 1.418-1.94.01-.534-.382-.994-.89-1.046a1.005 1.005 0 0 0-.772.25.998.998 0 0 0-.327.74c0 .467.332.877.794.965ZM13.36 2.005a1.004 1.004 0 0 0-.769.25.997.997 0 0 0-.327.74c0 .467.331.877.793.965-.093.235-.24.467-.438.691a.21.21 0 0 0 .216.34c.416-.121 1.39-.554 1.417-1.94v-.02c0-.526-.387-.974-.891-1.026Z" fill="#000"/></svg>