<svg width="24" height="24" fill="none" xmlns="http://www.w3.org/2000/svg"><path fill="#9B9B9B" fill-opacity=".31" d="M2 2h20v20H2z"/><rect x="4" y="11" width="16" height="2" rx="1" fill="#000"/><rect x="4" y="17" width="6" height="2" rx="1" fill="#000"/><rect x="9" y="6" width="7" height="2" rx="1" fill="#000"/><rect x="4" y="14" width="16" height="2" rx="1" fill="#000"/><g clip-path="url(#a)"><path d="M4.586 5.586C4.964 5.208 5.466 5 6 5c.534 0 1.036.208 1.414.586C7.792 5.964 8 6.466 8 7c0 .534-.208 1.036-.586 1.414C7.036 8.792 6.534 9 6 9a1.987 1.987 0 0 1-1.414-.586A1.987 1.987 0 0 1 4 7c0-.534.208-1.036.586-1.414ZM6 8.766c.522 0 .992-.229 1.316-.59-.2-.532-.714-.91-1.316-.91a.703.703 0 1 0 0-1.407.703.703 0 0 0 0 1.407c-.602 0-1.115.378-1.316.91.324.361.794.59 1.316.59Z" fill="#000"/></g><defs><clipPath id="a"><path fill="#fff" transform="matrix(-1 0 0 1 8 5)" d="M0 0h4v4H0z"/></clipPath></defs></svg>